<mxfile host="app.diagrams.net" agent="Mozilla/5.0 (Windows NT 10.0; Win64; x64) AppleWebKit/537.36 (KHTML, like Gecko) Chrome/132.0.0.0 Safari/537.36" version="26.0.11">
  <diagram id="prtHgNgQTEPvFCAcTncT" name="Page-1">
    <mxGraphModel dx="989" dy="532" grid="1" gridSize="10" guides="1" tooltips="1" connect="1" arrows="1" fold="1" page="1" pageScale="1" pageWidth="827" pageHeight="1169" math="0" shadow="0">
      <root>
        <mxCell id="0" />
        <mxCell id="1" parent="0" />
        <mxCell id="dNxyNK7c78bLwvsdeMH5-19" value="Pool" style="swimlane;html=1;childLayout=stackLayout;resizeParent=1;resizeParentMax=0;horizontal=0;startSize=20;horizontalStack=0;" parent="1" vertex="1">
          <mxGeometry x="120" y="120" width="1530" height="730" as="geometry" />
        </mxCell>
        <mxCell id="dNxyNK7c78bLwvsdeMH5-20" value="RRHH" style="swimlane;html=1;startSize=20;horizontal=0;" parent="dNxyNK7c78bLwvsdeMH5-19" vertex="1">
          <mxGeometry x="20" width="1510" height="250" as="geometry" />
        </mxCell>
        <mxCell id="I4FNq2IiU0rCwsg-7DSh-55" value="" style="points=[[0.25,0,0],[0.5,0,0],[0.75,0,0],[1,0.25,0],[1,0.5,0],[1,0.75,0],[0.75,1,0],[0.5,1,0],[0.25,1,0],[0,0.75,0],[0,0.5,0],[0,0.25,0]];shape=mxgraph.bpmn.task2;whiteSpace=wrap;rectStyle=rounded;size=10;html=1;container=1;expand=0;collapsible=0;taskMarker=abstract;" vertex="1" parent="dNxyNK7c78bLwvsdeMH5-20">
          <mxGeometry x="610" y="90" width="90" height="47" as="geometry" />
        </mxCell>
        <mxCell id="dNxyNK7c78bLwvsdeMH5-21" value="SOC" style="swimlane;html=1;startSize=20;horizontal=0;" parent="dNxyNK7c78bLwvsdeMH5-19" vertex="1">
          <mxGeometry x="20" y="250" width="1510" height="285" as="geometry" />
        </mxCell>
        <mxCell id="I4FNq2IiU0rCwsg-7DSh-3" value="" style="endArrow=none;html=1;rounded=0;exitX=1;exitY=0.5;exitDx=0;exitDy=0;" edge="1" parent="dNxyNK7c78bLwvsdeMH5-21" source="dNxyNK7c78bLwvsdeMH5-21">
          <mxGeometry width="50" height="50" relative="1" as="geometry">
            <mxPoint x="670" y="60" as="sourcePoint" />
            <mxPoint x="20" y="60" as="targetPoint" />
            <Array as="points">
              <mxPoint x="20" y="140" />
            </Array>
          </mxGeometry>
        </mxCell>
        <mxCell id="I4FNq2IiU0rCwsg-7DSh-4" value="Analists" style="text;html=1;align=center;verticalAlign=middle;resizable=0;points=[];autosize=1;strokeColor=none;fillColor=none;rotation=-90;" vertex="1" parent="dNxyNK7c78bLwvsdeMH5-21">
          <mxGeometry y="198.5" width="70" height="30" as="geometry" />
        </mxCell>
        <mxCell id="I4FNq2IiU0rCwsg-7DSh-8" value="Manager" style="text;html=1;align=center;verticalAlign=middle;resizable=0;points=[];autosize=1;strokeColor=none;fillColor=none;rotation=-90;" vertex="1" parent="dNxyNK7c78bLwvsdeMH5-21">
          <mxGeometry y="40" width="70" height="30" as="geometry" />
        </mxCell>
        <mxCell id="I4FNq2IiU0rCwsg-7DSh-12" value="" style="edgeStyle=orthogonalEdgeStyle;rounded=0;orthogonalLoop=1;jettySize=auto;html=1;" edge="1" parent="dNxyNK7c78bLwvsdeMH5-21" source="I4FNq2IiU0rCwsg-7DSh-10" target="I4FNq2IiU0rCwsg-7DSh-11">
          <mxGeometry relative="1" as="geometry" />
        </mxCell>
        <mxCell id="I4FNq2IiU0rCwsg-7DSh-10" value="" style="ellipse;whiteSpace=wrap;html=1;aspect=fixed;fillColor=#d5e8d4;strokeColor=#82b366;" vertex="1" parent="dNxyNK7c78bLwvsdeMH5-21">
          <mxGeometry x="40" y="90" width="20" height="20" as="geometry" />
        </mxCell>
        <mxCell id="I4FNq2IiU0rCwsg-7DSh-11" value="Request" style="rounded=1;whiteSpace=wrap;html=1;" vertex="1" parent="dNxyNK7c78bLwvsdeMH5-21">
          <mxGeometry x="100" y="82.5" width="70" height="35" as="geometry" />
        </mxCell>
        <mxCell id="I4FNq2IiU0rCwsg-7DSh-21" value="" style="edgeStyle=orthogonalEdgeStyle;rounded=0;orthogonalLoop=1;jettySize=auto;html=1;" edge="1" parent="dNxyNK7c78bLwvsdeMH5-21" source="I4FNq2IiU0rCwsg-7DSh-13">
          <mxGeometry relative="1" as="geometry">
            <mxPoint x="220" y="233.5" as="targetPoint" />
          </mxGeometry>
        </mxCell>
        <mxCell id="I4FNq2IiU0rCwsg-7DSh-13" value="Evaluate" style="rounded=1;whiteSpace=wrap;html=1;" vertex="1" parent="dNxyNK7c78bLwvsdeMH5-21">
          <mxGeometry x="95" y="218.5" width="80" height="30" as="geometry" />
        </mxCell>
        <mxCell id="I4FNq2IiU0rCwsg-7DSh-23" value="" style="edgeStyle=elbowEdgeStyle;fontSize=12;html=1;endFill=0;startFill=0;endSize=6;startSize=6;dashed=1;dashPattern=1 4;endArrow=openThin;startArrow=none;rounded=0;exitX=0.5;exitY=1;exitDx=0;exitDy=0;entryX=0.5;entryY=0;entryDx=0;entryDy=0;" edge="1" parent="dNxyNK7c78bLwvsdeMH5-21" source="I4FNq2IiU0rCwsg-7DSh-11" target="I4FNq2IiU0rCwsg-7DSh-13">
          <mxGeometry width="160" relative="1" as="geometry">
            <mxPoint x="220" y="208.5" as="sourcePoint" />
            <mxPoint x="380" y="208.5" as="targetPoint" />
          </mxGeometry>
        </mxCell>
        <mxCell id="I4FNq2IiU0rCwsg-7DSh-24" value="" style="points=[[0.25,0.25,0],[0.5,0,0],[0.75,0.25,0],[1,0.5,0],[0.75,0.75,0],[0.5,1,0],[0.25,0.75,0],[0,0.5,0]];shape=mxgraph.bpmn.gateway2;html=1;verticalLabelPosition=bottom;labelBackgroundColor=#ffffff;verticalAlign=top;align=center;perimeter=rhombusPerimeter;outlineConnect=0;outline=none;symbol=none;gwType=parallel;" vertex="1" parent="dNxyNK7c78bLwvsdeMH5-21">
          <mxGeometry x="220" y="223.5" width="20" height="20" as="geometry" />
        </mxCell>
        <mxCell id="I4FNq2IiU0rCwsg-7DSh-25" value="Tipo" style="points=[[0.25,0,0],[0.5,0,0],[0.75,0,0],[1,0.25,0],[1,0.5,0],[1,0.75,0],[0.75,1,0],[0.5,1,0],[0.25,1,0],[0,0.75,0],[0,0.5,0],[0,0.25,0]];shape=mxgraph.bpmn.task2;whiteSpace=wrap;rectStyle=rounded;size=10;html=1;container=1;expand=0;collapsible=0;taskMarker=abstract;" vertex="1" parent="dNxyNK7c78bLwvsdeMH5-21">
          <mxGeometry x="250" y="198.5" width="70" height="25" as="geometry" />
        </mxCell>
        <mxCell id="I4FNq2IiU0rCwsg-7DSh-29" value="" style="edgeStyle=elbowEdgeStyle;fontSize=12;html=1;endArrow=blockThin;endFill=1;rounded=0;exitX=0.5;exitY=0;exitDx=0;exitDy=0;exitPerimeter=0;" edge="1" parent="dNxyNK7c78bLwvsdeMH5-21" source="I4FNq2IiU0rCwsg-7DSh-24" target="I4FNq2IiU0rCwsg-7DSh-25">
          <mxGeometry width="160" relative="1" as="geometry">
            <mxPoint x="220" y="148.5" as="sourcePoint" />
            <mxPoint x="380" y="148.5" as="targetPoint" />
            <Array as="points">
              <mxPoint x="230" y="208.5" />
            </Array>
          </mxGeometry>
        </mxCell>
        <mxCell id="I4FNq2IiU0rCwsg-7DSh-30" value="Implicados" style="points=[[0.25,0,0],[0.5,0,0],[0.75,0,0],[1,0.25,0],[1,0.5,0],[1,0.75,0],[0.75,1,0],[0.5,1,0],[0.25,1,0],[0,0.75,0],[0,0.5,0],[0,0.25,0]];shape=mxgraph.bpmn.task2;whiteSpace=wrap;rectStyle=rounded;size=10;html=1;container=1;expand=0;collapsible=0;taskMarker=abstract;" vertex="1" parent="dNxyNK7c78bLwvsdeMH5-21">
          <mxGeometry x="250" y="248.5" width="70" height="25" as="geometry" />
        </mxCell>
        <mxCell id="I4FNq2IiU0rCwsg-7DSh-31" value="" style="edgeStyle=elbowEdgeStyle;fontSize=12;html=1;endArrow=blockThin;endFill=1;rounded=0;exitX=0.5;exitY=1;exitDx=0;exitDy=0;exitPerimeter=0;" edge="1" parent="dNxyNK7c78bLwvsdeMH5-21" source="I4FNq2IiU0rCwsg-7DSh-24" target="I4FNq2IiU0rCwsg-7DSh-30">
          <mxGeometry width="160" relative="1" as="geometry">
            <mxPoint x="220" y="148.5" as="sourcePoint" />
            <mxPoint x="380" y="148.5" as="targetPoint" />
            <Array as="points">
              <mxPoint x="230" y="263.5" />
            </Array>
          </mxGeometry>
        </mxCell>
        <mxCell id="I4FNq2IiU0rCwsg-7DSh-33" value="" style="shape=mxgraph.bpmn.data2;labelPosition=center;verticalLabelPosition=bottom;align=center;verticalAlign=top;size=7;html=1;bpmnTransferType=output;" vertex="1" parent="dNxyNK7c78bLwvsdeMH5-21">
          <mxGeometry x="400" y="198.5" width="30" height="35" as="geometry" />
        </mxCell>
        <mxCell id="I4FNq2IiU0rCwsg-7DSh-34" value="" style="edgeStyle=elbowEdgeStyle;fontSize=12;html=1;endFill=0;startFill=0;endSize=6;startSize=6;dashed=1;dashPattern=1 4;endArrow=openThin;startArrow=none;rounded=0;exitX=1;exitY=0.5;exitDx=0;exitDy=0;exitPerimeter=0;entryX=0;entryY=0.357;entryDx=0;entryDy=0;entryPerimeter=0;" edge="1" parent="dNxyNK7c78bLwvsdeMH5-21" source="I4FNq2IiU0rCwsg-7DSh-25" target="I4FNq2IiU0rCwsg-7DSh-33">
          <mxGeometry width="160" relative="1" as="geometry">
            <mxPoint x="220" y="148.5" as="sourcePoint" />
            <mxPoint x="380" y="148.5" as="targetPoint" />
          </mxGeometry>
        </mxCell>
        <mxCell id="I4FNq2IiU0rCwsg-7DSh-35" value="" style="shape=mxgraph.bpmn.data2;labelPosition=center;verticalLabelPosition=bottom;align=center;verticalAlign=top;size=8;html=1;bpmnTransferType=output;" vertex="1" parent="dNxyNK7c78bLwvsdeMH5-21">
          <mxGeometry x="400" y="243.5" width="30" height="35" as="geometry" />
        </mxCell>
        <mxCell id="I4FNq2IiU0rCwsg-7DSh-36" value="" style="edgeStyle=elbowEdgeStyle;fontSize=12;html=1;endFill=0;startFill=0;endSize=6;startSize=6;dashed=1;dashPattern=1 4;endArrow=openThin;startArrow=none;rounded=0;exitX=1;exitY=0.5;exitDx=0;exitDy=0;exitPerimeter=0;entryX=0;entryY=0.5;entryDx=0;entryDy=0;entryPerimeter=0;" edge="1" parent="dNxyNK7c78bLwvsdeMH5-21" source="I4FNq2IiU0rCwsg-7DSh-30" target="I4FNq2IiU0rCwsg-7DSh-35">
          <mxGeometry width="160" relative="1" as="geometry">
            <mxPoint x="220" y="148.5" as="sourcePoint" />
            <mxPoint x="380" y="148.5" as="targetPoint" />
          </mxGeometry>
        </mxCell>
        <mxCell id="I4FNq2IiU0rCwsg-7DSh-37" value="Lista incidencias" style="text;html=1;align=center;verticalAlign=middle;resizable=0;points=[];autosize=1;strokeColor=none;fillColor=none;" vertex="1" parent="dNxyNK7c78bLwvsdeMH5-21">
          <mxGeometry x="430" y="203.5" width="110" height="30" as="geometry" />
        </mxCell>
        <mxCell id="I4FNq2IiU0rCwsg-7DSh-38" value="Lista implicados" style="text;html=1;align=center;verticalAlign=middle;resizable=0;points=[];autosize=1;strokeColor=none;fillColor=none;" vertex="1" parent="dNxyNK7c78bLwvsdeMH5-21">
          <mxGeometry x="430" y="246" width="110" height="30" as="geometry" />
        </mxCell>
        <mxCell id="I4FNq2IiU0rCwsg-7DSh-47" value="Necesita formación" style="edgeStyle=orthogonalEdgeStyle;rounded=0;orthogonalLoop=1;jettySize=auto;html=1;" edge="1" parent="dNxyNK7c78bLwvsdeMH5-21" source="I4FNq2IiU0rCwsg-7DSh-40" target="I4FNq2IiU0rCwsg-7DSh-46">
          <mxGeometry x="-0.014" y="25" relative="1" as="geometry">
            <Array as="points">
              <mxPoint x="495" y="25" />
            </Array>
            <mxPoint x="-25" y="20" as="offset" />
          </mxGeometry>
        </mxCell>
        <mxCell id="I4FNq2IiU0rCwsg-7DSh-50" value="" style="edgeStyle=orthogonalEdgeStyle;rounded=0;orthogonalLoop=1;jettySize=auto;html=1;entryX=0;entryY=0.75;entryDx=0;entryDy=0;entryPerimeter=0;" edge="1" parent="dNxyNK7c78bLwvsdeMH5-21" source="I4FNq2IiU0rCwsg-7DSh-40" target="I4FNq2IiU0rCwsg-7DSh-49">
          <mxGeometry relative="1" as="geometry">
            <Array as="points">
              <mxPoint x="495" y="128" />
            </Array>
          </mxGeometry>
        </mxCell>
        <mxCell id="I4FNq2IiU0rCwsg-7DSh-51" value="Necesita&amp;nbsp;&lt;div&gt;automatización&lt;/div&gt;" style="edgeLabel;html=1;align=center;verticalAlign=middle;resizable=0;points=[];" vertex="1" connectable="0" parent="I4FNq2IiU0rCwsg-7DSh-50">
          <mxGeometry x="-0.106" y="-1" relative="1" as="geometry">
            <mxPoint x="-24" y="-6" as="offset" />
          </mxGeometry>
        </mxCell>
        <mxCell id="I4FNq2IiU0rCwsg-7DSh-40" value="" style="points=[[0.25,0.25,0],[0.5,0,0],[0.75,0.25,0],[1,0.5,0],[0.75,0.75,0],[0.5,1,0],[0.25,0.75,0],[0,0.5,0]];shape=mxgraph.bpmn.gateway2;html=1;verticalLabelPosition=bottom;labelBackgroundColor=#ffffff;verticalAlign=top;align=center;perimeter=rhombusPerimeter;outlineConnect=0;outline=end;symbol=general;" vertex="1" parent="dNxyNK7c78bLwvsdeMH5-21">
          <mxGeometry x="480" y="59" width="30" height="31" as="geometry" />
        </mxCell>
        <mxCell id="I4FNq2IiU0rCwsg-7DSh-43" value="No acción&amp;nbsp;&lt;div&gt;(revisión posterior)&lt;/div&gt;" style="edgeStyle=elbowEdgeStyle;fontSize=12;html=1;endArrow=blockThin;endFill=1;startArrow=dash;startFill=0;endSize=6;startSize=6;rounded=0;elbow=horizontal;" edge="1" parent="dNxyNK7c78bLwvsdeMH5-21">
          <mxGeometry width="160" relative="1" as="geometry">
            <mxPoint x="510" y="74.15999999999997" as="sourcePoint" />
            <mxPoint x="670" y="74.15999999999997" as="targetPoint" />
          </mxGeometry>
        </mxCell>
        <mxCell id="I4FNq2IiU0rCwsg-7DSh-46" value="Dar formación" style="rounded=1;whiteSpace=wrap;html=1;verticalAlign=top;labelBackgroundColor=#ffffff;" vertex="1" parent="dNxyNK7c78bLwvsdeMH5-21">
          <mxGeometry x="530" y="10" width="90" height="30" as="geometry" />
        </mxCell>
        <mxCell id="I4FNq2IiU0rCwsg-7DSh-49" value="Automatizar" style="points=[[0.25,0,0],[0.5,0,0],[0.75,0,0],[1,0.25,0],[1,0.5,0],[1,0.75,0],[0.75,1,0],[0.5,1,0],[0.25,1,0],[0,0.75,0],[0,0.5,0],[0,0.25,0]];shape=mxgraph.bpmn.task2;whiteSpace=wrap;rectStyle=rounded;size=10;html=1;container=1;expand=0;collapsible=0;taskMarker=abstract;" vertex="1" parent="dNxyNK7c78bLwvsdeMH5-21">
          <mxGeometry x="535" y="100" width="80" height="37.5" as="geometry" />
        </mxCell>
        <mxCell id="I4FNq2IiU0rCwsg-7DSh-64" value="" style="edgeStyle=orthogonalEdgeStyle;rounded=0;orthogonalLoop=1;jettySize=auto;html=1;entryX=0;entryY=0.5;entryDx=0;entryDy=0;entryPerimeter=0;" edge="1" parent="dNxyNK7c78bLwvsdeMH5-21" source="I4FNq2IiU0rCwsg-7DSh-62" target="I4FNq2IiU0rCwsg-7DSh-40">
          <mxGeometry relative="1" as="geometry">
            <Array as="points" />
          </mxGeometry>
        </mxCell>
        <mxCell id="I4FNq2IiU0rCwsg-7DSh-62" value="Analasis elemento" style="points=[[0.25,0,0],[0.5,0,0],[0.75,0,0],[1,0.25,0],[1,0.5,0],[1,0.75,0],[0.75,1,0],[0.5,1,0],[0.25,1,0],[0,0.75,0],[0,0.5,0],[0,0.25,0]];shape=mxgraph.bpmn.task2;whiteSpace=wrap;rectStyle=rounded;size=10;html=1;container=1;expand=0;collapsible=0;taskMarker=abstract;isLoopStandard=1;" vertex="1" parent="dNxyNK7c78bLwvsdeMH5-21">
          <mxGeometry x="360" y="49.5" width="100" height="50" as="geometry" />
        </mxCell>
        <mxCell id="I4FNq2IiU0rCwsg-7DSh-63" value="" style="edgeStyle=elbowEdgeStyle;fontSize=12;html=1;endFill=0;startFill=0;endSize=6;startSize=6;dashed=1;dashPattern=1 4;endArrow=openThin;startArrow=none;rounded=0;exitX=0;exitY=0;exitDx=11.5;exitDy=0;exitPerimeter=0;" edge="1" parent="dNxyNK7c78bLwvsdeMH5-21" source="I4FNq2IiU0rCwsg-7DSh-33" target="I4FNq2IiU0rCwsg-7DSh-62">
          <mxGeometry width="160" relative="1" as="geometry">
            <mxPoint x="455" y="180" as="sourcePoint" />
            <mxPoint x="615" y="180" as="targetPoint" />
          </mxGeometry>
        </mxCell>
        <mxCell id="I4FNq2IiU0rCwsg-7DSh-65" value="" style="html=1;shape=mxgraph.flowchart.annotation_2;align=left;labelPosition=right;rotation=-180;" vertex="1" parent="dNxyNK7c78bLwvsdeMH5-21">
          <mxGeometry x="330" y="49.5" width="30" height="52.5" as="geometry" />
        </mxCell>
        <mxCell id="I4FNq2IiU0rCwsg-7DSh-67" value="Hasta que no&amp;nbsp;&lt;div&gt;haya elementos&lt;/div&gt;&lt;div&gt;en la lista&lt;/div&gt;" style="text;html=1;align=center;verticalAlign=middle;resizable=0;points=[];autosize=1;strokeColor=none;fillColor=none;" vertex="1" parent="dNxyNK7c78bLwvsdeMH5-21">
          <mxGeometry x="240" y="44.5" width="110" height="60" as="geometry" />
        </mxCell>
        <mxCell id="I4FNq2IiU0rCwsg-7DSh-58" value="" style="edgeStyle=elbowEdgeStyle;fontSize=12;html=1;endArrow=blockThin;endFill=1;rounded=0;exitX=0.5;exitY=0;exitDx=0;exitDy=0;entryX=0;entryY=0.593;entryDx=0;entryDy=0;entryPerimeter=0;" edge="1" parent="dNxyNK7c78bLwvsdeMH5-21" target="I4FNq2IiU0rCwsg-7DSh-55">
          <mxGeometry width="160" relative="1" as="geometry">
            <mxPoint x="555.5999999999998" y="9.999999999999886" as="sourcePoint" />
            <mxPoint x="594.4" y="-152.3599999999999" as="targetPoint" />
          </mxGeometry>
        </mxCell>
        <mxCell id="dNxyNK7c78bLwvsdeMH5-22" value="DESARROLLO" style="swimlane;html=1;startSize=20;horizontal=0;strokeWidth=1;perimeterSpacing=0;" parent="dNxyNK7c78bLwvsdeMH5-19" vertex="1">
          <mxGeometry x="20" y="535" width="1510" height="195" as="geometry" />
        </mxCell>
        <mxCell id="I4FNq2IiU0rCwsg-7DSh-22" value="X" style="text;html=1;align=center;verticalAlign=middle;resizable=0;points=[];autosize=1;strokeColor=none;fillColor=none;" vertex="1" parent="1">
          <mxGeometry x="65" y="198" width="30" height="30" as="geometry" />
        </mxCell>
      </root>
    </mxGraphModel>
  </diagram>
</mxfile>
